{
    "asset" : {
        "generator" : "Khronos glTF Blender I/O v1.2.75",
        "version" : "2.0"
    },
    "extensionsUsed" : [
        "KHR_materials_clearcoat"
    ],
    "scene" : 0,
    "scenes" : [
        {
            "name" : "Scene",
            "nodes" : [
                0,
                1,
                2,
                3
            ]
        }
    ],
    "nodes" : [
        {
            "name" : "Light",
            "rotation" : [
                0.16907575726509094,
                0.7558803558349609,
                -0.27217137813568115,
                0.570947527885437
            ],
            "translation" : [
                4.853808879852295,
                -0.7831177711486816,
                14.919517517089844
            ]
        },
        {
            "name" : "Camera",
            "rotation" : [
                0.7071067690849304,
                0,
                0,
                0.7071067690849304
            ],
            "translation" : [
                0.12192130088806152,
                1.392688512802124,
                46.000789642333984
            ]
        },
        {
            "mesh" : 0,
            "name" : "Head_of_Michelangelo_s_David",
            "rotation" : [
                0.6797306537628174,
                0.006844708696007729,
                0.007385071367025375,
                0.7333927154541016
            ],
            "scale" : [
                0.15000000596046448,
                0.15000000596046448,
                0.15000000596046448
            ],
            "translation" : [
                -0.2874727249145508,
                -0.3007666766643524,
                0.19229072332382202
            ]
        },
        {
            "name" : "Point",
            "translation" : [
                -0.15551185607910156,
                0,
                -12.752041816711426
            ]
        }
    ],
    "animations" : [
        {
            "channels" : [
                {
                    "sampler" : 0,
                    "target" : {
                        "node" : 0,
                        "path" : "translation"
                    }
                },
                {
                    "sampler" : 1,
                    "target" : {
                        "node" : 0,
                        "path" : "rotation"
                    }
                },
                {
                    "sampler" : 2,
                    "target" : {
                        "node" : 0,
                        "path" : "scale"
                    }
                }
            ],
            "name" : "LightAction",
            "samplers" : [
                {
                    "input" : 3,
                    "interpolation" : "STEP",
                    "output" : 4
                },
                {
                    "input" : 3,
                    "interpolation" : "STEP",
                    "output" : 5
                },
                {
                    "input" : 3,
                    "interpolation" : "STEP",
                    "output" : 6
                }
            ]
        },
        {
            "channels" : [
                {
                    "sampler" : 0,
                    "target" : {
                        "node" : 1,
                        "path" : "translation"
                    }
                },
                {
                    "sampler" : 1,
                    "target" : {
                        "node" : 1,
                        "path" : "rotation"
                    }
                },
                {
                    "sampler" : 2,
                    "target" : {
                        "node" : 1,
                        "path" : "scale"
                    }
                }
            ],
            "name" : "CameraAction",
            "samplers" : [
                {
                    "input" : 3,
                    "interpolation" : "STEP",
                    "output" : 7
                },
                {
                    "input" : 3,
                    "interpolation" : "STEP",
                    "output" : 8
                },
                {
                    "input" : 3,
                    "interpolation" : "STEP",
                    "output" : 9
                }
            ]
        },
        {
            "channels" : [
                {
                    "sampler" : 0,
                    "target" : {
                        "node" : 2,
                        "path" : "translation"
                    }
                },
                {
                    "sampler" : 1,
                    "target" : {
                        "node" : 2,
                        "path" : "rotation"
                    }
                },
                {
                    "sampler" : 2,
                    "target" : {
                        "node" : 2,
                        "path" : "scale"
                    }
                }
            ],
            "name" : "Head_of_Michelangelo_s_DavidAction",
            "samplers" : [
                {
                    "input" : 10,
                    "interpolation" : "LINEAR",
                    "output" : 11
                },
                {
                    "input" : 12,
                    "interpolation" : "LINEAR",
                    "output" : 13
                },
                {
                    "input" : 10,
                    "interpolation" : "LINEAR",
                    "output" : 14
                }
            ]
        },
        {
            "channels" : [
                {
                    "sampler" : 0,
                    "target" : {
                        "node" : 3,
                        "path" : "translation"
                    }
                },
                {
                    "sampler" : 1,
                    "target" : {
                        "node" : 3,
                        "path" : "rotation"
                    }
                },
                {
                    "sampler" : 2,
                    "target" : {
                        "node" : 3,
                        "path" : "scale"
                    }
                }
            ],
            "name" : "PointAction",
            "samplers" : [
                {
                    "input" : 3,
                    "interpolation" : "STEP",
                    "output" : 15
                },
                {
                    "input" : 3,
                    "interpolation" : "STEP",
                    "output" : 16
                },
                {
                    "input" : 3,
                    "interpolation" : "STEP",
                    "output" : 17
                }
            ]
        }
    ],
    "materials" : [
        {
            "doubleSided" : true,
            "emissiveFactor" : [
                0,
                0,
                0
            ],
            "extensions" : {
                "KHR_materials_clearcoat" : {
                    "clearcoatFactor" : 1,
                    "clearcoatRoughnessFactor" : 0
                }
            },
            "name" : "Material.001",
            "pbrMetallicRoughness" : {
                "baseColorFactor" : [
                    0.8247621059417725,
                    0.68977952003479,
                    0.8688856959342957,
                    1
                ],
                "metallicFactor" : 0.7060606479644775,
                "roughnessFactor" : 0.6000000238418579
            }
        }
    ],
    "meshes" : [
        {
            "name" : "Head_of_Michelangelo_s_David",
            "primitives" : [
                {
                    "attributes" : {
                        "POSITION" : 0,
                        "NORMAL" : 1
                    },
                    "indices" : 2,
                    "material" : 0
                }
            ]
        }
    ],
    "accessors" : [
        {
            "bufferView" : 0,
            "componentType" : 5126,
            "count" : 1290,
            "max" : [
                28.35350799560547,
                32.73991775512695,
                44.66227340698242
            ],
            "min" : [
                -33.66489028930664,
                -25.43688201904297,
                -42.878326416015625
            ],
            "type" : "VEC3"
        },
        {
            "bufferView" : 1,
            "componentType" : 5126,
            "count" : 1290,
            "type" : "VEC3"
        },
        {
            "bufferView" : 2,
            "componentType" : 5123,
            "count" : 1290,
            "type" : "SCALAR"
        },
        {
            "bufferView" : 3,
            "componentType" : 5126,
            "count" : 1,
            "max" : [
                0.041666666666666664
            ],
            "min" : [
                0.041666666666666664
            ],
            "type" : "SCALAR"
        },
        {
            "bufferView" : 4,
            "componentType" : 5126,
            "count" : 1,
            "type" : "VEC3"
        },
        {
            "bufferView" : 5,
            "componentType" : 5126,
            "count" : 1,
            "type" : "VEC4"
        },
        {
            "bufferView" : 6,
            "componentType" : 5126,
            "count" : 1,
            "type" : "VEC3"
        },
        {
            "bufferView" : 7,
            "componentType" : 5126,
            "count" : 1,
            "type" : "VEC3"
        },
        {
            "bufferView" : 8,
            "componentType" : 5126,
            "count" : 1,
            "type" : "VEC4"
        },
        {
            "bufferView" : 9,
            "componentType" : 5126,
            "count" : 1,
            "type" : "VEC3"
        },
        {
            "bufferView" : 10,
            "componentType" : 5126,
            "count" : 181,
            "max" : [
                7.5
            ],
            "min" : [
                0
            ],
            "type" : "SCALAR"
        },
        {
            "bufferView" : 11,
            "componentType" : 5126,
            "count" : 181,
            "type" : "VEC3"
        },
        {
            "bufferView" : 12,
            "componentType" : 5126,
            "count" : 518,
            "max" : [
                7.5
            ],
            "min" : [
                -14.041666666666666
            ],
            "type" : "SCALAR"
        },
        {
            "bufferView" : 13,
            "componentType" : 5126,
            "count" : 518,
            "type" : "VEC4"
        },
        {
            "bufferView" : 14,
            "componentType" : 5126,
            "count" : 181,
            "type" : "VEC3"
        },
        {
            "bufferView" : 15,
            "componentType" : 5126,
            "count" : 1,
            "type" : "VEC3"
        },
        {
            "bufferView" : 16,
            "componentType" : 5126,
            "count" : 1,
            "type" : "VEC4"
        },
        {
            "bufferView" : 17,
            "componentType" : 5126,
            "count" : 1,
            "type" : "VEC3"
        }
    ],
    "bufferViews" : [
        {
            "buffer" : 0,
            "byteLength" : 15480,
            "byteOffset" : 0
        },
        {
            "buffer" : 0,
            "byteLength" : 15480,
            "byteOffset" : 15480
        },
        {
            "buffer" : 0,
            "byteLength" : 2580,
            "byteOffset" : 30960
        },
        {
            "buffer" : 0,
            "byteLength" : 4,
            "byteOffset" : 33540
        },
        {
            "buffer" : 0,
            "byteLength" : 12,
            "byteOffset" : 33544
        },
        {
            "buffer" : 0,
            "byteLength" : 16,
            "byteOffset" : 33556
        },
        {
            "buffer" : 0,
            "byteLength" : 12,
            "byteOffset" : 33572
        },
        {
            "buffer" : 0,
            "byteLength" : 12,
            "byteOffset" : 33584
        },
        {
            "buffer" : 0,
            "byteLength" : 16,
            "byteOffset" : 33596
        },
        {
            "buffer" : 0,
            "byteLength" : 12,
            "byteOffset" : 33612
        },
        {
            "buffer" : 0,
            "byteLength" : 724,
            "byteOffset" : 33624
        },
        {
            "buffer" : 0,
            "byteLength" : 2172,
            "byteOffset" : 34348
        },
        {
            "buffer" : 0,
            "byteLength" : 2072,
            "byteOffset" : 36520
        },
        {
            "buffer" : 0,
            "byteLength" : 8288,
            "byteOffset" : 38592
        },
        {
            "buffer" : 0,
            "byteLength" : 2172,
            "byteOffset" : 46880
        },
        {
            "buffer" : 0,
            "byteLength" : 12,
            "byteOffset" : 49052
        },
        {
            "buffer" : 0,
            "byteLength" : 16,
            "byteOffset" : 49064
        },
        {
            "buffer" : 0,
            "byteLength" : 12,
            "byteOffset" : 49080
        }
    ],
    "buffers" : [
        {
            "byteLength" : 49092,
            "uri" : "data:application/octet-stream;base64,"
        }
    ]
}
