{
    "asset" : {
        "generator" : "Khronos glTF Blender I/O v1.2.75",
        "version" : "2.0"
    },
    "extensionsUsed" : [
        "KHR_materials_clearcoat"
    ],
    "scene" : 0,
    "scenes" : [
        {
            "name" : "Scene",
            "nodes" : [
                0
            ]
        }
    ],
    "nodes" : [
        {
            "mesh" : 0,
            "name" : "Head_of_Michelangelo_s_David",
            "rotation" : [
                -0.6583170294761658,
                0.16842278838157654,
                -0.1694314032793045,
                -0.7138245701789856
            ],
            "scale" : [
                0.15000000596046448,
                0.15000000596046448,
                0.15000000596046448
            ],
            "translation" : [
                -0.2874727249145508,
                0.6312138438224792,
                0.19229072332382202
            ]
        }
    ],
    "animations" : [
        {
            "channels" : [
                {
                    "sampler" : 0,
                    "target" : {
                        "node" : 0,
                        "path" : "translation"
                    }
                },
                {
                    "sampler" : 1,
                    "target" : {
                        "node" : 0,
                        "path" : "rotation"
                    }
                },
                {
                    "sampler" : 2,
                    "target" : {
                        "node" : 0,
                        "path" : "scale"
                    }
                }
            ],
            "name" : "Head_of_Michelangelo_s_DavidAction",
            "samplers" : [
                {
                    "input" : 3,
                    "interpolation" : "LINEAR",
                    "output" : 4
                },
                {
                    "input" : 5,
                    "interpolation" : "LINEAR",
                    "output" : 6
                },
                {
                    "input" : 3,
                    "interpolation" : "LINEAR",
                    "output" : 7
                }
            ]
        }
    ],
    "materials" : [
        {
            "doubleSided" : true,
            "emissiveFactor" : [
                0,
                0,
                0
            ],
            "extensions" : {
                "KHR_materials_clearcoat" : {
                    "clearcoatFactor" : 1,
                    "clearcoatRoughnessFactor" : 0
                }
            },
            "name" : "Material.001",
            "pbrMetallicRoughness" : {
                "baseColorFactor" : [
                    0.8247621059417725,
                    0.68977952003479,
                    0.8688856959342957,
                    1
                ],
                "metallicFactor" : 0.7060606479644775,
                "roughnessFactor" : 0.6000000238418579
            }
        }
    ],
    "meshes" : [
        {
            "name" : "Head_of_Michelangelo_s_David",
            "primitives" : [
                {
                    "attributes" : {
                        "POSITION" : 0,
                        "NORMAL" : 1
                    },
                    "indices" : 2,
                    "material" : 0
                }
            ]
        }
    ],
    "accessors" : [
        {
            "bufferView" : 0,
            "componentType" : 5126,
            "count" : 1290,
            "max" : [
                28.35350799560547,
                32.73991775512695,
                44.66227340698242
            ],
            "min" : [
                -33.66489028930664,
                -25.43688201904297,
                -42.878326416015625
            ],
            "type" : "VEC3"
        },
        {
            "bufferView" : 1,
            "componentType" : 5126,
            "count" : 1290,
            "type" : "VEC3"
        },
        {
            "bufferView" : 2,
            "componentType" : 5123,
            "count" : 1290,
            "type" : "SCALAR"
        },
        {
            "bufferView" : 3,
            "componentType" : 5126,
            "count" : 22,
            "max" : [
                0.9166666666666666
            ],
            "min" : [
                0.041666666666666664
            ],
            "type" : "SCALAR"
        },
        {
            "bufferView" : 4,
            "componentType" : 5126,
            "count" : 22,
            "type" : "VEC3"
        },
        {
            "bufferView" : 5,
            "componentType" : 5126,
            "count" : 360,
            "max" : [
                0.9166666666666666
            ],
            "min" : [
                -14.041666666666666
            ],
            "type" : "SCALAR"
        },
        {
            "bufferView" : 6,
            "componentType" : 5126,
            "count" : 360,
            "type" : "VEC4"
        },
        {
            "bufferView" : 7,
            "componentType" : 5126,
            "count" : 22,
            "type" : "VEC3"
        }
    ],
    "bufferViews" : [
        {
            "buffer" : 0,
            "byteLength" : 15480,
            "byteOffset" : 0
        },
        {
            "buffer" : 0,
            "byteLength" : 15480,
            "byteOffset" : 15480
        },
        {
            "buffer" : 0,
            "byteLength" : 2580,
            "byteOffset" : 30960
        },
        {
            "buffer" : 0,
            "byteLength" : 88,
            "byteOffset" : 33540
        },
        {
            "buffer" : 0,
            "byteLength" : 264,
            "byteOffset" : 33628
        },
        {
            "buffer" : 0,
            "byteLength" : 1440,
            "byteOffset" : 33892
        },
        {
            "buffer" : 0,
            "byteLength" : 5760,
            "byteOffset" : 35332
        },
        {
            "buffer" : 0,
            "byteLength" : 264,
            "byteOffset" : 41092
        }
    ],
    "buffers" : [
        {
            "byteLength" : 41356,
            "uri" : "data:application/octet-stream;base64,"
        }
    ]
}
