{
    "asset" : {
        "generator" : "Khronos glTF Blender I/O v1.2.75",
        "version" : "2.0"
    },
    "scene" : 0,
    "scenes" : [
        {
            "name" : "Scene",
            "nodes" : [
                0
            ]
        }
    ],
    "nodes" : [
        {
            "mesh" : 0,
            "name" : "Head_of_Michelangelo_s_David",
            "rotation" : [
                -0.6583170294761658,
                0.16842278838157654,
                -0.1694314032793045,
                -0.7138245701789856
            ],
            "scale" : [
                0.15000000596046448,
                0.15000000596046448,
                0.15000000596046448
            ],
            "translation" : [
                -0.2874727249145508,
                0.2584175169467926,
                0.19229072332382202
            ]
        }
    ],
    "animations" : [
        {
            "channels" : [
                {
                    "sampler" : 0,
                    "target" : {
                        "node" : 0,
                        "path" : "translation"
                    }
                },
                {
                    "sampler" : 1,
                    "target" : {
                        "node" : 0,
                        "path" : "rotation"
                    }
                },
                {
                    "sampler" : 2,
                    "target" : {
                        "node" : 0,
                        "path" : "scale"
                    }
                }
            ],
            "name" : "Head_of_Michelangelo_s_DavidAction",
            "samplers" : [
                {
                    "input" : 3,
                    "interpolation" : "LINEAR",
                    "output" : 4
                },
                {
                    "input" : 5,
                    "interpolation" : "LINEAR",
                    "output" : 6
                },
                {
                    "input" : 3,
                    "interpolation" : "LINEAR",
                    "output" : 7
                }
            ]
        }
    ],
    "meshes" : [
        {
            "name" : "Head_of_Michelangelo_s_David",
            "primitives" : [
                {
                    "attributes" : {
                        "POSITION" : 0,
                        "NORMAL" : 1
                    },
                    "indices" : 2
                }
            ]
        }
    ],
    "accessors" : [
        {
            "bufferView" : 0,
            "componentType" : 5126,
            "count" : 1290,
            "max" : [
                28.35350799560547,
                32.73991775512695,
                44.66227340698242
            ],
            "min" : [
                -33.66489028930664,
                -25.43688201904297,
                -42.878326416015625
            ],
            "type" : "VEC3"
        },
        {
            "bufferView" : 1,
            "componentType" : 5126,
            "count" : 1290,
            "type" : "VEC3"
        },
        {
            "bufferView" : 2,
            "componentType" : 5123,
            "count" : 1290,
            "type" : "SCALAR"
        },
        {
            "bufferView" : 3,
            "componentType" : 5126,
            "count" : 299,
            "max" : [
                12.458333333333334
            ],
            "min" : [
                0.041666666666666664
            ],
            "type" : "SCALAR"
        },
        {
            "bufferView" : 4,
            "componentType" : 5126,
            "count" : 299,
            "type" : "VEC3"
        },
        {
            "bufferView" : 5,
            "componentType" : 5126,
            "count" : 637,
            "max" : [
                12.458333333333334
            ],
            "min" : [
                -14.041666666666666
            ],
            "type" : "SCALAR"
        },
        {
            "bufferView" : 6,
            "componentType" : 5126,
            "count" : 637,
            "type" : "VEC4"
        },
        {
            "bufferView" : 7,
            "componentType" : 5126,
            "count" : 299,
            "type" : "VEC3"
        }
    ],
    "bufferViews" : [
        {
            "buffer" : 0,
            "byteLength" : 15480,
            "byteOffset" : 0
        },
        {
            "buffer" : 0,
            "byteLength" : 15480,
            "byteOffset" : 15480
        },
        {
            "buffer" : 0,
            "byteLength" : 2580,
            "byteOffset" : 30960
        },
        {
            "buffer" : 0,
            "byteLength" : 1196,
            "byteOffset" : 33540
        },
        {
            "buffer" : 0,
            "byteLength" : 3588,
            "byteOffset" : 34736
        },
        {
            "buffer" : 0,
            "byteLength" : 2548,
            "byteOffset" : 38324
        },
        {
            "buffer" : 0,
            "byteLength" : 10192,
            "byteOffset" : 40872
        },
        {
            "buffer" : 0,
            "byteLength" : 3588,
            "byteOffset" : 51064
        }
    ],
    "buffers" : [
        {
            "byteLength" : 54652,
            "uri" : "data:application/octet-stream;base64,"
        }
    ]
}
