{
    "asset" : {
        "generator" : "Khronos glTF Blender I/O v1.2.75",
        "version" : "2.0"
    },
    "scene" : 0,
    "scenes" : [
        {
            "extras" : {
                "glTF2ExportSettings" : {
                    "export_all_influences" : 1,
                    "export_apply" : 1,
                    "export_cameras" : 1,
                    "export_colors" : 0,
                    "export_current_frame" : 1,
                    "export_extras" : 1,
                    "export_format" : "GLTF_EMBEDDED",
                    "export_frame_range" : 1,
                    "export_frame_step" : 1,
                    "export_lights" : 0,
                    "export_materials" : 1,
                    "export_morph_tangent" : 1,
                    "export_normals" : 1,
                    "export_tangents" : 0,
                    "export_texcoords" : 0
                }
            },
            "name" : "Scene",
            "nodes" : [
                0,
                2,
                3,
                4
            ]
        }
    ],
    "nodes" : [
        {
            "name" : "Light",
            "rotation" : [
                0.16907575726509094,
                0.7558803558349609,
                -0.27217137813568115,
                0.570947527885437
            ],
            "translation" : [
                4.853808879852295,
                -0.7831177711486816,
                14.919517517089844
            ]
        },
        {
            "camera" : 0,
            "name" : "Camera_Orientation",
            "rotation" : [
                -0.7071067690849304,
                0,
                0,
                0.7071067690849304
            ]
        },
        {
            "children" : [
                1
            ],
            "name" : "Camera",
            "rotation" : [
                0.7071067690849304,
                0,
                0,
                0.7071067690849304
            ],
            "translation" : [
                0.12192130088806152,
                1.392688512802124,
                46.000789642333984
            ]
        },
        {
            "mesh" : 0,
            "name" : "Head_of_Michelangelo_s_David",
            "rotation" : [
                0.7071067690849304,
                0,
                0,
                0.7071067690849304
            ],
            "scale" : [
                0.15000000596046448,
                0.15000000596046448,
                0.15000000596046448
            ]
        },
        {
            "name" : "Point",
            "translation" : [
                -0.15551185607910156,
                0,
                -12.752041816711426
            ]
        }
    ],
    "cameras" : [
        {
            "name" : "Camera",
            "perspective" : {
                "yfov" : 0.39959648408210363,
                "zfar" : 100,
                "znear" : 0.10000000149011612
            },
            "type" : "perspective"
        }
    ],
    "animations" : [
        {
            "channels" : [
                {
                    "sampler" : 0,
                    "target" : {
                        "node" : 2,
                        "path" : "translation"
                    }
                },
                {
                    "sampler" : 1,
                    "target" : {
                        "node" : 2,
                        "path" : "rotation"
                    }
                },
                {
                    "sampler" : 2,
                    "target" : {
                        "node" : 2,
                        "path" : "scale"
                    }
                }
            ],
            "name" : "CameraAction",
            "samplers" : [
                {
                    "input" : 3,
                    "interpolation" : "STEP",
                    "output" : 4
                },
                {
                    "input" : 3,
                    "interpolation" : "STEP",
                    "output" : 5
                },
                {
                    "input" : 3,
                    "interpolation" : "STEP",
                    "output" : 6
                }
            ]
        },
        {
            "channels" : [
                {
                    "sampler" : 0,
                    "target" : {
                        "node" : 3,
                        "path" : "translation"
                    }
                },
                {
                    "sampler" : 1,
                    "target" : {
                        "node" : 3,
                        "path" : "rotation"
                    }
                },
                {
                    "sampler" : 2,
                    "target" : {
                        "node" : 3,
                        "path" : "scale"
                    }
                }
            ],
            "name" : "Head_of_Michelangelo_s_DavidAction",
            "samplers" : [
                {
                    "input" : 7,
                    "interpolation" : "STEP",
                    "output" : 8
                },
                {
                    "input" : 9,
                    "interpolation" : "LINEAR",
                    "output" : 10
                },
                {
                    "input" : 7,
                    "interpolation" : "STEP",
                    "output" : 11
                }
            ]
        },
        {
            "channels" : [
                {
                    "sampler" : 0,
                    "target" : {
                        "node" : 4,
                        "path" : "translation"
                    }
                },
                {
                    "sampler" : 1,
                    "target" : {
                        "node" : 4,
                        "path" : "rotation"
                    }
                },
                {
                    "sampler" : 2,
                    "target" : {
                        "node" : 4,
                        "path" : "scale"
                    }
                }
            ],
            "name" : "PointAction",
            "samplers" : [
                {
                    "input" : 3,
                    "interpolation" : "STEP",
                    "output" : 12
                },
                {
                    "input" : 3,
                    "interpolation" : "STEP",
                    "output" : 13
                },
                {
                    "input" : 3,
                    "interpolation" : "STEP",
                    "output" : 14
                }
            ]
        }
    ],
    "materials" : [
        {
            "doubleSided" : true,
            "name" : "Material.001",
            "pbrMetallicRoughness" : {}
        }
    ],
    "meshes" : [
        {
            "name" : "Head_of_Michelangelo_s_David",
            "primitives" : [
                {
                    "attributes" : {
                        "POSITION" : 0,
                        "NORMAL" : 1
                    },
                    "indices" : 2,
                    "material" : 0
                }
            ]
        }
    ],
    "accessors" : [
        {
            "bufferView" : 0,
            "componentType" : 5126,
            "count" : 1284,
            "max" : [
                28.35350799560547,
                32.73991775512695,
                44.66227340698242
            ],
            "min" : [
                -33.66489028930664,
                -25.43688201904297,
                -42.878326416015625
            ],
            "type" : "VEC3"
        },
        {
            "bufferView" : 1,
            "componentType" : 5126,
            "count" : 1284,
            "type" : "VEC3"
        },
        {
            "bufferView" : 2,
            "componentType" : 5123,
            "count" : 1290,
            "type" : "SCALAR"
        },
        {
            "bufferView" : 3,
            "componentType" : 5126,
            "count" : 1,
            "max" : [
                0.041666666666666664
            ],
            "min" : [
                0.041666666666666664
            ],
            "type" : "SCALAR"
        },
        {
            "bufferView" : 4,
            "componentType" : 5126,
            "count" : 1,
            "type" : "VEC3"
        },
        {
            "bufferView" : 5,
            "componentType" : 5126,
            "count" : 1,
            "type" : "VEC4"
        },
        {
            "bufferView" : 6,
            "componentType" : 5126,
            "count" : 1,
            "type" : "VEC3"
        },
        {
            "bufferView" : 7,
            "componentType" : 5126,
            "count" : 1,
            "max" : [
                7.5
            ],
            "min" : [
                7.5
            ],
            "type" : "SCALAR"
        },
        {
            "bufferView" : 8,
            "componentType" : 5126,
            "count" : 1,
            "type" : "VEC3"
        },
        {
            "bufferView" : 9,
            "componentType" : 5126,
            "count" : 180,
            "max" : [
                7.5
            ],
            "min" : [
                0.041666666666666664
            ],
            "type" : "SCALAR"
        },
        {
            "bufferView" : 10,
            "componentType" : 5126,
            "count" : 180,
            "type" : "VEC4"
        },
        {
            "bufferView" : 11,
            "componentType" : 5126,
            "count" : 1,
            "type" : "VEC3"
        },
        {
            "bufferView" : 12,
            "componentType" : 5126,
            "count" : 1,
            "type" : "VEC3"
        },
        {
            "bufferView" : 13,
            "componentType" : 5126,
            "count" : 1,
            "type" : "VEC4"
        },
        {
            "bufferView" : 14,
            "componentType" : 5126,
            "count" : 1,
            "type" : "VEC3"
        }
    ],
    "bufferViews" : [
        {
            "buffer" : 0,
            "byteLength" : 15408,
            "byteOffset" : 0
        },
        {
            "buffer" : 0,
            "byteLength" : 15408,
            "byteOffset" : 15408
        },
        {
            "buffer" : 0,
            "byteLength" : 2580,
            "byteOffset" : 30816
        },
        {
            "buffer" : 0,
            "byteLength" : 4,
            "byteOffset" : 33396
        },
        {
            "buffer" : 0,
            "byteLength" : 12,
            "byteOffset" : 33400
        },
        {
            "buffer" : 0,
            "byteLength" : 16,
            "byteOffset" : 33412
        },
        {
            "buffer" : 0,
            "byteLength" : 12,
            "byteOffset" : 33428
        },
        {
            "buffer" : 0,
            "byteLength" : 4,
            "byteOffset" : 33440
        },
        {
            "buffer" : 0,
            "byteLength" : 12,
            "byteOffset" : 33444
        },
        {
            "buffer" : 0,
            "byteLength" : 720,
            "byteOffset" : 33456
        },
        {
            "buffer" : 0,
            "byteLength" : 2880,
            "byteOffset" : 34176
        },
        {
            "buffer" : 0,
            "byteLength" : 12,
            "byteOffset" : 37056
        },
        {
            "buffer" : 0,
            "byteLength" : 12,
            "byteOffset" : 37068
        },
        {
            "buffer" : 0,
            "byteLength" : 16,
            "byteOffset" : 37080
        },
        {
            "buffer" : 0,
            "byteLength" : 12,
            "byteOffset" : 37096
        }
    ],
    "buffers" : [
        {
            "byteLength" : 37108,
            "uri" : "data:application/octet-stream;base64,"
        }
    ]
}
