{
    "asset" : {
        "generator" : "Khronos glTF Blender I/O v1.2.75",
        "version" : "2.0"
    },
    "extensionsUsed" : [
        "KHR_materials_clearcoat"
    ],
    "scene" : 0,
    "scenes" : [
        {
            "name" : "Scene",
            "nodes" : [
                0,
                1,
                2,
                3
            ]
        }
    ],
    "nodes" : [
        {
            "name" : "Light",
            "rotation" : [
                0.16907575726509094,
                0.7558803558349609,
                -0.27217137813568115,
                0.570947527885437
            ],
            "translation" : [
                4.853808879852295,
                2.247380495071411,
                12.105483055114746
            ]
        },
        {
            "name" : "Camera",
            "rotation" : [
                0.7071067690849304,
                0,
                0,
                0.7071067690849304
            ],
            "translation" : [
                0.12192130088806152,
                1.392688512802124,
                46.000789642333984
            ]
        },
        {
            "mesh" : 0,
            "name" : "Head_of_Michelangelo_s_David",
            "rotation" : [
                0.6086486577987671,
                -0.35992613434791565,
                0.3599261939525604,
                0.6086485981941223
            ],
            "scale" : [
                0.15000000596046448,
                0.15000000596046448,
                0.15000000596046448
            ],
            "translation" : [
                0,
                0.8000302314758301,
                0
            ]
        },
        {
            "name" : "Point",
            "translation" : [
                -0.15551185607910156,
                0,
                -12.752041816711426
            ]
        }
    ],
    "animations" : [
        {
            "channels" : [
                {
                    "sampler" : 0,
                    "target" : {
                        "node" : 0,
                        "path" : "translation"
                    }
                },
                {
                    "sampler" : 1,
                    "target" : {
                        "node" : 0,
                        "path" : "rotation"
                    }
                },
                {
                    "sampler" : 2,
                    "target" : {
                        "node" : 0,
                        "path" : "scale"
                    }
                }
            ],
            "name" : "LightAction",
            "samplers" : [
                {
                    "input" : 3,
                    "interpolation" : "LINEAR",
                    "output" : 4
                },
                {
                    "input" : 3,
                    "interpolation" : "LINEAR",
                    "output" : 5
                },
                {
                    "input" : 3,
                    "interpolation" : "LINEAR",
                    "output" : 6
                }
            ]
        },
        {
            "channels" : [
                {
                    "sampler" : 0,
                    "target" : {
                        "node" : 1,
                        "path" : "translation"
                    }
                },
                {
                    "sampler" : 1,
                    "target" : {
                        "node" : 1,
                        "path" : "rotation"
                    }
                },
                {
                    "sampler" : 2,
                    "target" : {
                        "node" : 1,
                        "path" : "scale"
                    }
                }
            ],
            "name" : "CameraAction",
            "samplers" : [
                {
                    "input" : 7,
                    "interpolation" : "STEP",
                    "output" : 8
                },
                {
                    "input" : 7,
                    "interpolation" : "STEP",
                    "output" : 9
                },
                {
                    "input" : 7,
                    "interpolation" : "STEP",
                    "output" : 10
                }
            ]
        },
        {
            "channels" : [
                {
                    "sampler" : 0,
                    "target" : {
                        "node" : 2,
                        "path" : "translation"
                    }
                },
                {
                    "sampler" : 1,
                    "target" : {
                        "node" : 2,
                        "path" : "rotation"
                    }
                },
                {
                    "sampler" : 2,
                    "target" : {
                        "node" : 2,
                        "path" : "scale"
                    }
                }
            ],
            "name" : "Head_of_Michelangelo_s_DavidAction",
            "samplers" : [
                {
                    "input" : 7,
                    "interpolation" : "STEP",
                    "output" : 11
                },
                {
                    "input" : 7,
                    "interpolation" : "STEP",
                    "output" : 12
                },
                {
                    "input" : 7,
                    "interpolation" : "STEP",
                    "output" : 13
                }
            ]
        },
        {
            "channels" : [
                {
                    "sampler" : 0,
                    "target" : {
                        "node" : 3,
                        "path" : "translation"
                    }
                },
                {
                    "sampler" : 1,
                    "target" : {
                        "node" : 3,
                        "path" : "rotation"
                    }
                },
                {
                    "sampler" : 2,
                    "target" : {
                        "node" : 3,
                        "path" : "scale"
                    }
                }
            ],
            "name" : "PointAction",
            "samplers" : [
                {
                    "input" : 14,
                    "interpolation" : "STEP",
                    "output" : 15
                },
                {
                    "input" : 14,
                    "interpolation" : "STEP",
                    "output" : 16
                },
                {
                    "input" : 14,
                    "interpolation" : "STEP",
                    "output" : 17
                }
            ]
        }
    ],
    "materials" : [
        {
            "doubleSided" : true,
            "emissiveFactor" : [
                0,
                0,
                0
            ],
            "extensions" : {
                "KHR_materials_clearcoat" : {
                    "clearcoatFactor" : 1,
                    "clearcoatRoughnessFactor" : 0
                }
            },
            "name" : "Material.001",
            "pbrMetallicRoughness" : {
                "baseColorFactor" : [
                    0.7594575881958008,
                    0.6354085803031921,
                    0.8000000715255737,
                    1
                ],
                "metallicFactor" : 0.5227272510528564,
                "roughnessFactor" : 0
            }
        }
    ],
    "meshes" : [
        {
            "name" : "Head_of_Michelangelo_s_David",
            "primitives" : [
                {
                    "attributes" : {
                        "POSITION" : 0,
                        "NORMAL" : 1
                    },
                    "indices" : 2,
                    "material" : 0
                }
            ]
        }
    ],
    "accessors" : [
        {
            "bufferView" : 0,
            "componentType" : 5126,
            "count" : 1290,
            "max" : [
                3.920766830444336,
                33.38148498535156,
                43.62733840942383
            ],
            "min" : [
                -58.097633361816406,
                -24.79531478881836,
                -43.91326141357422
            ],
            "type" : "VEC3"
        },
        {
            "bufferView" : 1,
            "componentType" : 5126,
            "count" : 1290,
            "type" : "VEC3"
        },
        {
            "bufferView" : 2,
            "componentType" : 5123,
            "count" : 1290,
            "type" : "SCALAR"
        },
        {
            "bufferView" : 3,
            "componentType" : 5126,
            "count" : 30,
            "max" : [
                1.25
            ],
            "min" : [
                0.041666666666666664
            ],
            "type" : "SCALAR"
        },
        {
            "bufferView" : 4,
            "componentType" : 5126,
            "count" : 30,
            "type" : "VEC3"
        },
        {
            "bufferView" : 5,
            "componentType" : 5126,
            "count" : 30,
            "type" : "VEC4"
        },
        {
            "bufferView" : 6,
            "componentType" : 5126,
            "count" : 30,
            "type" : "VEC3"
        },
        {
            "bufferView" : 7,
            "componentType" : 5126,
            "count" : 1,
            "max" : [
                0.041666666666666664
            ],
            "min" : [
                0.041666666666666664
            ],
            "type" : "SCALAR"
        },
        {
            "bufferView" : 8,
            "componentType" : 5126,
            "count" : 1,
            "type" : "VEC3"
        },
        {
            "bufferView" : 9,
            "componentType" : 5126,
            "count" : 1,
            "type" : "VEC4"
        },
        {
            "bufferView" : 10,
            "componentType" : 5126,
            "count" : 1,
            "type" : "VEC3"
        },
        {
            "bufferView" : 11,
            "componentType" : 5126,
            "count" : 1,
            "type" : "VEC3"
        },
        {
            "bufferView" : 12,
            "componentType" : 5126,
            "count" : 1,
            "type" : "VEC4"
        },
        {
            "bufferView" : 13,
            "componentType" : 5126,
            "count" : 1,
            "type" : "VEC3"
        },
        {
            "bufferView" : 14,
            "componentType" : 5126,
            "count" : 1,
            "max" : [
                1.25
            ],
            "min" : [
                1.25
            ],
            "type" : "SCALAR"
        },
        {
            "bufferView" : 15,
            "componentType" : 5126,
            "count" : 1,
            "type" : "VEC3"
        },
        {
            "bufferView" : 16,
            "componentType" : 5126,
            "count" : 1,
            "type" : "VEC4"
        },
        {
            "bufferView" : 17,
            "componentType" : 5126,
            "count" : 1,
            "type" : "VEC3"
        }
    ],
    "bufferViews" : [
        {
            "buffer" : 0,
            "byteLength" : 15480,
            "byteOffset" : 0
        },
        {
            "buffer" : 0,
            "byteLength" : 15480,
            "byteOffset" : 15480
        },
        {
            "buffer" : 0,
            "byteLength" : 2580,
            "byteOffset" : 30960
        },
        {
            "buffer" : 0,
            "byteLength" : 120,
            "byteOffset" : 33540
        },
        {
            "buffer" : 0,
            "byteLength" : 360,
            "byteOffset" : 33660
        },
        {
            "buffer" : 0,
            "byteLength" : 480,
            "byteOffset" : 34020
        },
        {
            "buffer" : 0,
            "byteLength" : 360,
            "byteOffset" : 34500
        },
        {
            "buffer" : 0,
            "byteLength" : 4,
            "byteOffset" : 34860
        },
        {
            "buffer" : 0,
            "byteLength" : 12,
            "byteOffset" : 34864
        },
        {
            "buffer" : 0,
            "byteLength" : 16,
            "byteOffset" : 34876
        },
        {
            "buffer" : 0,
            "byteLength" : 12,
            "byteOffset" : 34892
        },
        {
            "buffer" : 0,
            "byteLength" : 12,
            "byteOffset" : 34904
        },
        {
            "buffer" : 0,
            "byteLength" : 16,
            "byteOffset" : 34916
        },
        {
            "buffer" : 0,
            "byteLength" : 12,
            "byteOffset" : 34932
        },
        {
            "buffer" : 0,
            "byteLength" : 4,
            "byteOffset" : 34944
        },
        {
            "buffer" : 0,
            "byteLength" : 12,
            "byteOffset" : 34948
        },
        {
            "buffer" : 0,
            "byteLength" : 16,
            "byteOffset" : 34960
        },
        {
            "buffer" : 0,
            "byteLength" : 12,
            "byteOffset" : 34976
        }
    ],
    "buffers" : [
        {
            "byteLength" : 34988,
            "uri" : "data:application/octet-stream;base64,"
        }
    ]
}
