{
  "asset": {
    "version": "2.0",
    "generator": "GLTFExporter"
  },
  "scenes": [
    {
      "name": "Scene",
      "nodes": [
        2,
        3,
        9
      ]
    }
  ],
  "scene": 0,
  "nodes": [
    {
      "matrix": [
        0.2,
        0,
        0,
        0,
        0,
        0.2,
        0,
        0,
        0,
        0,
        0.2,
        0,
        0,
        -9.810921107263958,
        0,
        1
      ],
      "name": "Head_of_Michelangelo_s_David",
      "extras": {
        "name": "Head_of_Michelangelo_s_David"
      },
      "mesh": 0
    },
    {
      "name": "Head_of_Michelangelo's_Davidobj",
      "extras": {
        "name": "Head_of_Michelangelo's_David.obj"
      },
      "children": [
        0
      ]
    },
    {
      "name": "davishead.gltf",
      "children": [
        1
      ]
    },
    {
      "matrix": [
        1,
        0,
        0,
        0,
        0,
        1,
        0,
        0,
        0,
        0,
        1,
        0,
        5,
        10,
        7.5,
        1
      ],
      "name": "DirectionalLight",
      "extensions": {
        "KHR_lights_punctual": {
          "light": 0
        }
      }
    },
    {
      "matrix": [
        0.20000000298023224,
        0,
        0,
        0,
        0,
        0.20000000298023224,
        0,
        0,
        0,
        0,
        0.20000000298023224,
        0,
        0,
        -9.810920715332031,
        0,
        1
      ],
      "name": "Head_of_Michelangelo_s_David",
      "extras": {
        "name": "Head_of_Michelangelo_s_David"
      },
      "mesh": 1
    },
    {
      "name": "Head_of_Michelangelo's_Davidobj",
      "extras": {
        "name": "Head_of_Michelangelo's_David.obj"
      },
      "children": [
        4
      ]
    },
    {
      "name": "davisheadgltf",
      "extras": {
        "name": "davishead.gltf"
      },
      "children": [
        5
      ]
    },
    {
      "matrix": [
        1,
        0,
        0,
        0,
        0,
        1,
        0,
        0,
        0,
        0,
        1,
        0,
        0,
        0,
        -1,
        1
      ]
    },
    {
      "matrix": [
        1,
        0,
        1.2246468525851679e-16,
        0,
        0,
        1,
        0,
        0,
        -1.2246468525851679e-16,
        0,
        1,
        0,
        -5,
        -10,
        -7.5,
        1
      ],
      "name": "DirectionalLight",
      "extras": {
        "name": "DirectionalLight"
      },
      "extensions": {
        "KHR_lights_punctual": {
          "light": 1
        }
      },
      "children": [
        7
      ]
    },
    {
      "name": "scene (1).glb",
      "children": [
        6,
        8
      ]
    }
  ],
  "bufferViews": [
    {
      "buffer": 0,
      "byteOffset": 0,
      "byteLength": 15480,
      "target": 34962,
      "byteStride": 12
    },
    {
      "buffer": 0,
      "byteOffset": 15480,
      "byteLength": 15480,
      "target": 34962,
      "byteStride": 12
    },
    {
      "buffer": 0,
      "byteOffset": 30960,
      "byteLength": 15480,
      "target": 34962,
      "byteStride": 12
    },
    {
      "buffer": 0,
      "byteOffset": 46440,
      "byteLength": 15480,
      "target": 34962,
      "byteStride": 12
    }
  ],
  "buffers": [
    {
      "byteLength": 61920,
      "uri": "data:application/octet-stream;base64,"
    }
  ],
  "accessors": [
    {
      "bufferView": 0,
      "componentType": 5126,
      "count": 1290,
      "max": [
        31.009199142456055,
        87.875,
        29.08839988708496
      ],
      "min": [
        -31.009199142456055,
        0.3343999981880188,
        -29.08839988708496
      ],
      "type": "VEC3"
    },
    {
      "bufferView": 1,
      "componentType": 5126,
      "count": 1290,
      "max": [
        0.9884999990463257,
        0.9824000000953674,
        0.9725000262260437
      ],
      "min": [
        -0.9912999868392944,
        -0.9473999738693237,
        -0.986299991607666
      ],
      "type": "VEC3"
    },
    {
      "bufferView": 2,
      "componentType": 5126,
      "count": 1290,
      "max": [
        31.009199142456055,
        87.875,
        29.08839988708496
      ],
      "min": [
        -31.009199142456055,
        0.3343999981880188,
        -29.08839988708496
      ],
      "type": "VEC3"
    },
    {
      "bufferView": 3,
      "componentType": 5126,
      "count": 1290,
      "max": [
        0.9884898662567139,
        0.9823731184005737,
        0.9724811911582947
      ],
      "min": [
        -0.9912633299827576,
        -0.9473545551300049,
        -0.9862931370735168
      ],
      "type": "VEC3"
    }
  ],
  "materials": [
    {
      "pbrMetallicRoughness": {
        "baseColorFactor": [
          0.2784313725490196,
          0.8901960784313725,
          1,
          1
        ],
        "metallicFactor": 0.5,
        "roughnessFactor": 0.5
      },
      "emissiveFactor": [
        0.5882352941176471,
        0.03137254901960784,
        0.3843137254901961
      ],
      "name": "wire_028089177"
    },
    {
      "pbrMetallicRoughness": {
        "baseColorFactor": [
          0.2784313725490196,
          0.8901960784313725,
          1,
          1
        ],
        "metallicFactor": 1,
        "roughnessFactor": 0
      },
      "emissiveFactor": [
        0.5882352941176471,
        0.03137254901960784,
        0.3843137254901961
      ],
      "name": "wire_028089177"
    }
  ],
  "meshes": [
    {
      "primitives": [
        {
          "mode": 4,
          "attributes": {
            "POSITION": 0,
            "NORMAL": 1
          },
          "material": 0
        }
      ]
    },
    {
      "primitives": [
        {
          "mode": 4,
          "attributes": {
            "POSITION": 2,
            "NORMAL": 3
          },
          "material": 1
        }
      ]
    }
  ],
  "extensions": {
    "KHR_lights_punctual": {
      "lights": [
        {
          "name": "DirectionalLight",
          "color": [
            1,
            1,
            1
          ],
          "intensity": 1,
          "type": "directional"
        },
        {
          "name": "DirectionalLight",
          "color": [
            1,
            1,
            1
          ],
          "intensity": 1,
          "type": "directional"
        }
      ]
    }
  },
  "extensionsUsed": [
    "KHR_lights_punctual"
  ]
}
