{
  "asset": {
    "version": "2.0",
    "generator": "GLTFExporter"
  },
  "scenes": [
    {
      "name": "Scene",
      "nodes": [
        0,
        3
      ]
    }
  ],
  "scene": 0,
  "nodes": [
    {
      "matrix": [
        2.779457531963789,
        0,
        0,
        0,
        0,
        1,
        0,
        0,
        0,
        0,
        1.8785665787729096,
        0,
        5,
        10,
        7.5,
        1
      ],
      "name": "DirectionalLight",
      "extensions": {
        "KHR_lights_punctual": {
          "light": 0
        }
      }
    },
    {
      "name": "10057_wooden_door_v1",
      "mesh": 0
    },
    {
      "name": "10057_wooden_door_frame_v1",
      "mesh": 1
    },
    {
      "matrix": [
        -0.09361846785370234,
        0.0351174457935206,
        0.0015321480556550666,
        0,
        1.3877787807814457e-17,
        -0.004358779143693559,
        0.09990496005893053,
        0,
        0.03515085314363373,
        0.09352949291702402,
        0.004080622251452615,
        0,
        0,
        0,
        0,
        1
      ],
      "name": "10057_wooden_door_v3_iterations-2.obj",
      "children": [
        1,
        2
      ]
    }
  ],
  "extensions": {
    "KHR_lights_punctual": {
      "lights": [
        {
          "name": "DirectionalLight",
          "color": [
            1,
            1,
            1
          ],
          "intensity": 1,
          "type": "directional"
        }
      ]
    }
  },
  "bufferViews": [
    {
      "buffer": 0,
      "byteOffset": 0,
      "byteLength": 111456,
      "target": 34962,
      "byteStride": 12
    },
    {
      "buffer": 0,
      "byteOffset": 111456,
      "byteLength": 111456,
      "target": 34962,
      "byteStride": 12
    },
    {
      "buffer": 0,
      "byteOffset": 222912,
      "byteLength": 74304,
      "target": 34962,
      "byteStride": 8
    },
    {
      "buffer": 0,
      "byteOffset": 297216,
      "byteLength": 35568,
      "target": 34962,
      "byteStride": 12
    },
    {
      "buffer": 0,
      "byteOffset": 332784,
      "byteLength": 35568,
      "target": 34962,
      "byteStride": 12
    },
    {
      "buffer": 0,
      "byteOffset": 368352,
      "byteLength": 23712,
      "target": 34962,
      "byteStride": 8
    }
  ],
  "buffers": [
    {
      "byteLength": 392064,
      "uri": "data:application/octet-stream;base64,"
    }
  ],
  "accessors": [
    {
      "bufferView": 0,
      "componentType": 5126,
      "count": 9288,
      "max": [
        40.25270080566406,
        0.8942999839782715,
        201.74929809570312
      ],
      "min": [
        -40.739601135253906,
        -2.296299934387207,
        0.5997999906539917
      ],
      "type": "VEC3"
    },
    {
      "bufferView": 1,
      "componentType": 5126,
      "count": 9288,
      "max": [
        1,
        1,
        1
      ],
      "min": [
        -1,
        -1,
        -1
      ],
      "type": "VEC3"
    },
    {
      "bufferView": 2,
      "componentType": 5126,
      "count": 9288,
      "max": [
        0.955299973487854,
        0.9638000130653381
      ],
      "min": [
        0.03590000048279762,
        0.04230000078678131
      ],
      "type": "VEC2"
    },
    {
      "bufferView": 3,
      "componentType": 5126,
      "count": 2964,
      "max": [
        45.48350143432617,
        2.7662999629974365,
        206.9449005126953
      ],
      "min": [
        -45.47060012817383,
        -2.746299982070923,
        -0.0027000000700354576
      ],
      "type": "VEC3"
    },
    {
      "bufferView": 4,
      "componentType": 5126,
      "count": 2964,
      "max": [
        1,
        0.9998999834060669,
        1
      ],
      "min": [
        -1,
        -0.9998999834060669,
        -1
      ],
      "type": "VEC3"
    },
    {
      "bufferView": 5,
      "componentType": 5126,
      "count": 2964,
      "max": [
        0.988099992275238,
        0.9866999983787537
      ],
      "min": [
        0.13670000433921814,
        0.0066999997943639755
      ],
      "type": "VEC2"
    }
  ],
  "materials": [
    {
      "pbrMetallicRoughness": {
        "metallicFactor": 0.5,
        "roughnessFactor": 0.5
      },
      "name": "orig_orig_orig_orig_orig_orig_orig_10057_wooden_door_v1"
    },
    {
      "pbrMetallicRoughness": {
        "metallicFactor": 0.5,
        "roughnessFactor": 0.5
      },
      "name": "orig_orig_orig_orig_orig_orig_orig_10057_wooden_door_v1"
    }
  ],
  "meshes": [
    {
      "primitives": [
        {
          "mode": 4,
          "attributes": {
            "POSITION": 0,
            "NORMAL": 1,
            "TEXCOORD_0": 2
          },
          "material": 0
        }
      ]
    },
    {
      "primitives": [
        {
          "mode": 4,
          "attributes": {
            "POSITION": 3,
            "NORMAL": 4,
            "TEXCOORD_0": 5
          },
          "material": 1
        }
      ]
    }
  ],
  "extensionsUsed": [
    "KHR_lights_punctual"
  ]
}